<svg xmlns="http://www.w3.org/2000/svg" version="1.1" xmlns:xlink="http://www.w3.org/1999/xlink" xmlns:svgjs="http://svgjs.dev/svgjs" width="1000" height="292" viewBox="0 0 1000 292"><g transform="matrix(1,0,0,1,-0.6060606060606233,-0.16558092770949884)"><svg viewBox="0 0 396 116" data-background-color="#ffffff" preserveAspectRatio="xMidYMid meet" height="292" width="1000" xmlns="http://www.w3.org/2000/svg" xmlns:xlink="http://www.w3.org/1999/xlink"><g id="tight-bounds" transform="matrix(1,0,0,1,0.2400000000000091,0.06577872470651869)"><svg viewBox="0 0 395.52 114.15323041434567" height="114.15323041434567" width="395.52"><g><svg viewBox="0 0 395.52 114.15323041434567" height="114.15323041434567" width="395.52"><g><svg viewBox="0 0 395.52 114.15323041434567" height="114.15323041434567" width="395.52"><g id="textblocktransform"><svg viewBox="0 0 395.52 114.15323041434567" height="114.15323041434567" width="395.52" id="textblock"><g><rect width="395.52" height="90.65613489833143" fill="none" stroke-width="8.962371322224001" stroke="#088395" data-fill-palette-color="none" data-stroke-palette-color="tertiary"></rect><rect width="395.52" height="25.212307652255543" y="90.65613489833143" fill="#088395" data-fill-palette-color="tertiary"></rect></g><g><svg viewBox="0 0 395.52 89.65613489833143" height="89.65613489833143" width="395.52"><g transform="matrix(1,0,0,1,23.461705032,23.461705032)"><svg width="348.596589936" viewBox="4.6 -36 367.46999999999997 45.05" height="42.73272483433143" data-palette-color="#071952"><path d="M25.15-34.3L30.05-34.3 30.05 0 25.15 0 25.15-15.3 9.5-15.3 9.5 0 4.6 0 4.6-34.3 9.5-34.3 9.5-19.75 25.15-19.75 25.15-34.3ZM48.85-26.05Q53.9-26.05 56.37-24.05 58.85-22.05 58.85-18.25L58.85-18.25 58.85-5Q58.85-4.1 59.25-3.68 59.65-3.25 60.25-3.25L60.25-3.25Q61.4-3.25 62.55-3.95L62.55-3.95 62.55-0.5Q60.85 0.5 58.7 0.5L58.7 0.5Q56.55 0.5 55.5-0.73 54.45-1.95 54.35-4.1L54.35-4.1Q51.25 0.5 45.4 0.5L45.4 0.5Q41.2 0.5 39.12-1.33 37.05-3.15 37.05-7.1L37.05-7.1Q37.05-10.2 38.65-11.98 40.25-13.75 43.95-14.55 47.65-15.35 54.15-15.35L54.15-15.35 54.15-17.7Q54.15-20.25 52.65-21.28 51.15-22.3 48.3-22.3L48.3-22.3Q45.6-22.3 44.1-21.25 42.6-20.2 42.6-18.3L42.6-18.3 42.6-17.7 38-17.7Q37.9-18.4 37.9-19.35L37.9-19.35Q37.9-21.1 39.3-22.65 40.7-24.2 43.1-25.13 45.5-26.05 48.4-26.05L48.4-26.05 48.85-26.05ZM54.15-11.7Q48.9-11.7 46.22-11.18 43.55-10.65 42.65-9.6 41.75-8.55 41.75-6.7L41.75-6.7Q41.75-3.25 47-3.25L47-3.25Q48.85-3.25 50.5-4.17 52.15-5.1 53.15-6.8 54.15-8.5 54.15-10.7L54.15-10.7 54.15-11.7ZM77.8-26.05Q80.65-26.05 82.87-25.15 85.09-24.25 86.32-22.65 87.55-21.05 87.55-19.1L87.55-19.1 87.5-18.2 82.84-18.2 82.84-18.65Q82.84-22.3 77.2-22.3L77.2-22.3Q71.59-22.3 71.59-18.95L71.59-18.95Q71.59-17.4 73.2-16.68 74.8-15.95 78.09-15.3L78.09-15.3Q81.25-14.65 83.27-13.95 85.3-13.25 86.72-11.75 88.15-10.25 88.15-7.7L88.15-7.7Q88.15-3.6 85.34-1.55 82.55 0.5 77.3 0.5L77.3 0.5 76.55 0.5Q73.4 0.5 71.05-0.48 68.7-1.45 67.42-3.13 66.15-4.8 66.2-6.9L66.2-6.9 66.2-8 70.84-8 70.84-7.5Q70.84-3.25 78-3.25L78-3.25Q80.09-3.25 81.77-4.2 83.45-5.15 83.45-6.8L83.45-6.8Q83.45-8.2 82.52-9 81.59-9.8 80.25-10.2 78.9-10.6 76.5-11L76.5-11Q73.4-11.6 71.5-12.23 69.59-12.85 68.25-14.35 66.9-15.85 66.9-18.45L66.9-18.45Q66.9-22 69.7-24.03 72.5-26.05 77.34-26.05L77.34-26.05 77.8-26.05ZM104.79-26.05Q109.84-26.05 112.32-24.05 114.79-22.05 114.79-18.25L114.79-18.25 114.79-5Q114.79-4.1 115.19-3.68 115.59-3.25 116.19-3.25L116.19-3.25Q117.34-3.25 118.49-3.95L118.49-3.95 118.49-0.5Q116.79 0.5 114.64 0.5L114.64 0.5Q112.49 0.5 111.44-0.73 110.39-1.95 110.29-4.1L110.29-4.1Q107.19 0.5 101.34 0.5L101.34 0.5Q97.14 0.5 95.07-1.33 92.99-3.15 92.99-7.1L92.99-7.1Q92.99-10.2 94.59-11.98 96.19-13.75 99.89-14.55 103.59-15.35 110.09-15.35L110.09-15.35 110.09-17.7Q110.09-20.25 108.59-21.28 107.09-22.3 104.24-22.3L104.24-22.3Q101.54-22.3 100.04-21.25 98.54-20.2 98.54-18.3L98.54-18.3 98.54-17.7 93.94-17.7Q93.84-18.4 93.84-19.35L93.84-19.35Q93.84-21.1 95.24-22.65 96.64-24.2 99.04-25.13 101.44-26.05 104.34-26.05L104.34-26.05 104.79-26.05ZM110.09-11.7Q104.84-11.7 102.17-11.18 99.49-10.65 98.59-9.6 97.69-8.55 97.69-6.7L97.69-6.7Q97.69-3.25 102.94-3.25L102.94-3.25Q104.79-3.25 106.44-4.17 108.09-5.1 109.09-6.8 110.09-8.5 110.09-10.7L110.09-10.7 110.09-11.7ZM136.59-26.05Q140.79-26.05 143.19-23.8 145.59-21.55 145.59-17.2L145.59-17.2 145.59 0 140.89 0 140.89-16.35Q140.89-22.3 135.49-22.3L135.49-22.3Q133.69-22.3 132.14-21.35 130.59-20.4 129.64-18.78 128.69-17.15 128.69-15.2L128.69-15.2 128.69 0 123.99 0 123.99-25.55 127.39-25.55 128.04-21.8Q131.24-26.05 136.59-26.05L136.59-26.05ZM175.28-34.3L180.69-34.3 194.09 0 188.78 0 185.88-7.45 169.49-7.45 166.63 0 161.88 0 175.28-34.3ZM184.19-11.9L177.88-28.4 177.59-28.4 171.24-11.9 184.19-11.9ZM198.63-36L203.33-36 203.33 0 198.63 0 198.63-36ZM223.88-26.05Q228.73-26.05 231.48-22.5 234.23-18.95 234.23-12.75L234.23-12.75 234.23-12.2Q234.23-6.3 231.5-2.9 228.78 0.5 223.88 0.5L223.88 0.5Q219.18 0.5 216.53-3.25L216.53-3.25 216.53 9.05 211.83 9.05 211.83-25.55 215.33-25.55Q215.68-23.95 215.98-22.05L215.98-22.05Q218.83-26.05 223.88-26.05L223.88-26.05ZM223.03-22.3Q219.63-22.3 218.06-19.95 216.48-17.6 216.48-12.8L216.48-12.8Q216.48-7.9 218.11-5.58 219.73-3.25 223.03-3.25L223.03-3.25Q226.33-3.25 227.93-5.6 229.53-7.95 229.53-12.8L229.53-12.8Q229.53-17.7 227.91-20 226.28-22.3 223.03-22.3L223.03-22.3ZM263.38-26.05Q268.73-26.05 271.93-22.75 275.13-19.45 275.13-13.7L275.13-13.7 275.13-11.85Q275.13-6.1 271.98-2.8 268.82 0.5 263.38 0.5L263.38 0.5Q257.93 0.5 254.78-2.8 251.63-6.1 251.63-11.85L251.63-11.85 251.63-13.7Q251.63-19.45 254.83-22.75 258.02-26.05 263.38-26.05L263.38-26.05ZM263.38-22.3Q260.02-22.3 258.18-20 256.32-17.7 256.32-13.25L256.32-13.25 256.32-12.3Q256.32-7.95 258.15-5.6 259.98-3.25 263.38-3.25L263.38-3.25Q266.68-3.25 268.55-5.58 270.43-7.9 270.43-12.3L270.43-12.3 270.43-13.25Q270.43-17.6 268.6-19.95 266.77-22.3 263.38-22.3L263.38-22.3ZM308.82-26.05Q312.77-26.05 314.97-23.75 317.17-21.45 317.17-17.2L317.17-17.2 317.17 0 312.47 0 312.47-16.35Q312.47-22.3 307.87-22.3L307.87-22.3Q306.27-22.3 304.9-21.35 303.52-20.4 302.7-18.78 301.87-17.15 301.87-15.2L301.87-15.2 301.87 0 297.17 0 297.17-16.35Q297.17-22.3 292.57-22.3L292.57-22.3Q290.97-22.3 289.6-21.35 288.22-20.4 287.4-18.78 286.57-17.15 286.57-15.2L286.57-15.2 286.57 0 281.87 0 281.87-25.55 285.27-25.55 285.92-21.8Q288.82-26.05 293.97-26.05L293.97-26.05Q299.02-26.05 300.97-21.8L300.97-21.8Q302.67-24.2 304.62-25.13 306.57-26.05 308.82-26.05L308.82-26.05ZM335.47-26.05Q338.62-26.05 341.05-24.73 343.47-23.4 344.82-20.95 346.17-18.5 346.17-15.25L346.17-15.25 346.17-11.7 328.32-11.7Q328.42-7.65 330.22-5.45 332.02-3.25 335.57-3.25L335.57-3.25Q338.72-3.25 340.22-5.1 341.72-6.95 341.72-9.5L341.72-9.5 346.17-9.5Q346.17-6.5 344.8-4.25 343.42-2 341-0.75 338.57 0.5 335.47 0.5L335.47 0.5 335.27 0.5Q329.87 0.5 326.75-2.98 323.62-6.45 323.62-12.25L323.62-12.25 323.62-13.25Q323.62-17.05 325.02-19.95 326.42-22.85 329.02-24.45 331.62-26.05 335.12-26.05L335.12-26.05 335.47-26.05ZM335.22-22.3Q332.37-22.3 330.6-20.55 328.82-18.8 328.42-15.35L328.42-15.35 341.52-15.35 341.52-15.95Q341.52-18.8 339.8-20.55 338.07-22.3 335.22-22.3L335.22-22.3ZM364.52-26.05Q368.07-26.05 370.07-23.78 372.07-21.5 372.07-18.05L372.07-18.05 371.92-16.15 367.77-16.15 367.77-17.25Q367.77-18.75 367.02-19.9 366.27-21.05 365.12-21.68 363.97-22.3 362.82-22.3L362.82-22.3Q360.42-22.3 359.07-20.4 357.72-18.5 357.72-15.25L357.72-15.25 357.72 0 353.02 0 353.02-25.55 356.37-25.55 357.07-21.75Q357.37-22.75 358.42-23.75 359.47-24.75 361.04-25.4 362.62-26.05 364.52-26.05L364.52-26.05Z" opacity="1" transform="matrix(1,0,0,1,0,0)" fill="#071952" class="wordmark-text-0" data-fill-palette-color="primary" id="text-0"></path></svg></g></svg></g><g transform="matrix(1,0,0,1,81.08160000000001,89.65613489833143)"><svg viewBox="0 0 233.35679999999996 24.497095516014234" height="24.497095516014234" width="233.35679999999996"><g transform="matrix(1,0,0,1,20,3.2)"><svg width="193.35679999999996" viewBox="3.8 -38.85 421.45 39.45" height="18.09709551601423" data-palette-color="#ffffff"><path d="M16-18.2Q19.5-17.5 21.45-15.58 23.4-13.65 23.4-9.75L23.4-9.75Q23.4-4.9 20.23-2.45 17.05 0 11.5 0L11.5 0 3.8 0 3.8-34.45 10.35-34.45Q16.05-34.45 19.1-32.2 22.15-29.95 22.15-25.75L22.15-25.75Q22.15-22.8 20.53-20.9 18.9-19 16-18.2L16-18.2ZM10.8-30.85L8.35-30.85 8.35-19.8 11.3-19.8Q14.4-19.8 15.95-21.23 17.5-22.65 17.5-25.4L17.5-25.4Q17.5-28.35 15.88-29.6 14.25-30.85 10.8-30.85L10.8-30.85ZM11.5-3.65Q15-3.65 16.82-5.03 18.65-6.4 18.65-9.75L18.65-9.75Q18.65-13.2 16.93-14.73 15.2-16.25 11.65-16.25L11.65-16.25 8.35-16.25 8.35-3.65 11.5-3.65ZM43.9-5.6Q43.9-4.2 44.3-3.53 44.7-2.85 45.6-2.45L45.6-2.45 44.65 0.6Q42.8 0.3 41.72-0.58 40.65-1.45 40.2-3.2L40.2-3.2Q38.05 0.6 33.9 0.6L33.9 0.6Q30.65 0.6 28.72-1.58 26.8-3.75 26.8-7.35L26.8-7.35Q26.8-11.55 29.4-13.78 32-16 36.95-16L36.95-16 39.55-16 39.55-18.4Q39.55-21 38.52-22.2 37.5-23.4 35.35-23.4L35.35-23.4Q32.8-23.4 29.4-22.05L29.4-22.05 28.3-25.15Q32.35-26.9 35.9-26.9L35.9-26.9Q39.95-26.9 41.92-24.73 43.9-22.55 43.9-18.6L43.9-18.6 43.9-5.6ZM34.8-2.7Q37.9-2.7 39.55-6.9L39.55-6.9 39.55-13.05 37.45-13.05Q34.3-13.05 32.82-11.7 31.35-10.35 31.35-7.55L31.35-7.55Q31.35-5.15 32.25-3.93 33.15-2.7 34.8-2.7L34.8-2.7ZM64.09-37.45L68.5-36.95 68.5 0 64.59 0 64.3-3.35Q61.95 0.6 58.3 0.6L58.3 0.6Q54.2 0.6 52.02-3.03 49.84-6.65 49.84-13.05L49.84-13.05Q49.84-17.2 50.95-20.35 52.05-23.5 53.99-25.2 55.95-26.9 58.45-26.9L58.45-26.9Q61.89-26.9 64.09-23.85L64.09-23.85 64.09-37.45ZM59.14-2.9Q61.99-2.9 64.09-6.65L64.09-6.65 64.09-20Q62.05-23.4 59.34-23.4L59.34-23.4Q57.05-23.4 55.77-20.9 54.49-18.4 54.49-13.15L54.49-13.15Q54.49-2.9 59.14-2.9L59.14-2.9ZM92.84-13.95Q92.84-12.85 92.74-11.65L92.74-11.65 78.94-11.65Q79.14-6.9 80.52-4.95 81.89-3 84.44-3L84.44-3Q86.09-3 87.39-3.53 88.69-4.05 90.09-5.2L90.09-5.2 92.04-2.55Q88.74 0.6 84.29 0.6L84.29 0.6Q79.59 0.6 76.99-2.88 74.39-6.35 74.39-12.9L74.39-12.9Q74.39-19.45 76.87-23.18 79.34-26.9 83.84-26.9L83.84-26.9Q88.19-26.9 90.52-23.63 92.84-20.35 92.84-13.95L92.84-13.95ZM88.59-14.9L88.59-15.25Q88.59-19.55 87.44-21.5 86.29-23.45 83.84-23.45L83.84-23.45Q81.64-23.45 80.39-21.48 79.14-19.5 78.94-14.9L78.94-14.9 88.59-14.9ZM120.69-26.9Q123.34-26.9 124.94-24.83 126.54-22.75 126.54-19.35L126.54-19.35 126.54 0 122.24 0 122.24-18.8Q122.24-21.3 121.56-22.4 120.89-23.5 119.59-23.5L119.59-23.5Q116.94-23.5 114.69-18.8L114.69-18.8 114.69 0 110.39 0 110.39-18.8Q110.39-23.5 107.74-23.5L107.74-23.5Q106.34-23.5 105.06-22.25 103.79-21 102.79-18.8L102.79-18.8 102.79 0 98.49 0 98.49-26.35 102.29-26.35 102.59-22.55Q105.09-26.9 108.84-26.9L108.84-26.9Q110.84-26.9 112.22-25.68 113.59-24.45 114.19-22.2L114.19-22.2Q116.89-26.9 120.69-26.9L120.69-26.9ZM144.39-34.45L148.94-34.45 148.94 0 144.39 0 144.39-34.45ZM159.69-34.45L164.54-34.45 154.03-18.7 165.29 0 160.14 0 149.14-18.4 159.69-34.45ZM168.93-26.35L173.33-26.35 173.33 0 168.93 0 168.93-26.35ZM171.08-38.85Q172.43-38.85 173.23-38 174.03-37.15 174.03-35.8L174.03-35.8Q174.03-34.55 173.21-33.7 172.38-32.85 171.08-32.85L171.08-32.85Q169.78-32.85 168.96-33.7 168.13-34.55 168.13-35.8L168.13-35.8Q168.13-37.1 168.96-37.98 169.78-38.85 171.08-38.85L171.08-38.85ZM190.73-26.9Q191.83-26.9 192.73-26.6L192.73-26.6 191.98-22.35Q190.98-22.6 190.18-22.6L190.18-22.6Q188.23-22.6 186.98-20.85 185.73-19.1 185.03-15.5L185.03-15.5 185.03 0 180.63 0 180.63-26.35 184.43-26.35 184.78-21.45Q186.63-26.9 190.73-26.9L190.73-26.9ZM218.98-26.9Q221.63-26.9 223.23-24.83 224.83-22.75 224.83-19.35L224.83-19.35 224.83 0 220.53 0 220.53-18.8Q220.53-21.3 219.85-22.4 219.18-23.5 217.88-23.5L217.88-23.5Q215.23-23.5 212.98-18.8L212.98-18.8 212.98 0 208.68 0 208.68-18.8Q208.68-23.5 206.03-23.5L206.03-23.5Q204.63-23.5 203.35-22.25 202.08-21 201.08-18.8L201.08-18.8 201.08 0 196.78 0 196.78-26.35 200.58-26.35 200.88-22.55Q203.38-26.9 207.13-26.9L207.13-26.9Q209.13-26.9 210.5-25.68 211.88-24.45 212.48-22.2L212.48-22.2Q215.18-26.9 218.98-26.9L218.98-26.9ZM247.13-5.6Q247.13-4.2 247.53-3.53 247.93-2.85 248.83-2.45L248.83-2.45 247.88 0.6Q246.03 0.3 244.95-0.58 243.88-1.45 243.43-3.2L243.43-3.2Q241.28 0.6 237.13 0.6L237.13 0.6Q233.88 0.6 231.95-1.58 230.03-3.75 230.03-7.35L230.03-7.35Q230.03-11.55 232.63-13.78 235.23-16 240.18-16L240.18-16 242.78-16 242.78-18.4Q242.78-21 241.75-22.2 240.73-23.4 238.58-23.4L238.58-23.4Q236.03-23.4 232.63-22.05L232.63-22.05 231.53-25.15Q235.58-26.9 239.13-26.9L239.13-26.9Q243.18-26.9 245.15-24.73 247.13-22.55 247.13-18.6L247.13-18.6 247.13-5.6ZM238.03-2.7Q241.13-2.7 242.78-6.9L242.78-6.9 242.78-13.05 240.68-13.05Q237.53-13.05 236.05-11.7 234.58-10.35 234.58-7.55L234.58-7.55Q234.58-5.15 235.48-3.93 236.38-2.7 238.03-2.7L238.03-2.7ZM289.37-34.45L291.67 0 287.37 0 286.47-15.65Q285.82-25.35 285.92-29.8L285.92-29.8 280.07-3.9 275.82-3.9 269.67-29.85 269.72-27.55Q269.72-23.65 269.32-15.35L269.32-15.35 268.47 0 264.17 0 266.52-34.45 272.42-34.45 278.02-9.2 283.32-34.45 289.37-34.45ZM313.27-5.6Q313.27-4.2 313.67-3.53 314.07-2.85 314.97-2.45L314.97-2.45 314.02 0.6Q312.17 0.3 311.09-0.58 310.02-1.45 309.57-3.2L309.57-3.2Q307.42 0.6 303.27 0.6L303.27 0.6Q300.02 0.6 298.09-1.58 296.17-3.75 296.17-7.35L296.17-7.35Q296.17-11.55 298.77-13.78 301.37-16 306.32-16L306.32-16 308.92-16 308.92-18.4Q308.92-21 307.89-22.2 306.87-23.4 304.72-23.4L304.72-23.4Q302.17-23.4 298.77-22.05L298.77-22.05 297.67-25.15Q301.72-26.9 305.27-26.9L305.27-26.9Q309.32-26.9 311.29-24.73 313.27-22.55 313.27-18.6L313.27-18.6 313.27-5.6ZM304.17-2.7Q307.27-2.7 308.92-6.9L308.92-6.9 308.92-13.05 306.82-13.05Q303.67-13.05 302.19-11.7 300.72-10.35 300.72-7.55L300.72-7.55Q300.72-5.15 301.62-3.93 302.52-2.7 304.17-2.7L304.17-2.7ZM320.62-36.95L325.02-37.45 325.02 0 320.62 0 320.62-36.95ZM333.22-26.35L337.72-26.35 329.82-14.65 338.52 0 333.62 0 325.27-14.4 333.22-26.35ZM342.01-26.35L346.41-26.35 346.41 0 342.01 0 342.01-26.35ZM344.16-38.85Q345.51-38.85 346.31-38 347.11-37.15 347.11-35.8L347.11-35.8Q347.11-34.55 346.29-33.7 345.46-32.85 344.16-32.85L344.16-32.85Q342.86-32.85 342.04-33.7 341.21-34.55 341.21-35.8L341.21-35.8Q341.21-37.1 342.04-37.98 342.86-38.85 344.16-38.85L344.16-38.85ZM364.46-26.9Q367.31-26.9 369.01-24.85 370.71-22.8 370.71-19.35L370.71-19.35 370.71 0 366.31 0 366.31-18.75Q366.31-21.3 365.59-22.38 364.86-23.45 363.41-23.45L363.41-23.45Q360.56-23.45 358.11-18.55L358.11-18.55 358.11 0 353.71 0 353.71-26.35 357.51-26.35 357.86-22.4Q359.16-24.6 360.71-25.75 362.26-26.9 364.46-26.9L364.46-26.9ZM394.86-13.95Q394.86-12.85 394.76-11.65L394.76-11.65 380.96-11.65Q381.16-6.9 382.53-4.95 383.91-3 386.46-3L386.46-3Q388.11-3 389.41-3.53 390.71-4.05 392.11-5.2L392.11-5.2 394.06-2.55Q390.76 0.6 386.31 0.6L386.31 0.6Q381.61 0.6 379.01-2.88 376.41-6.35 376.41-12.9L376.41-12.9Q376.41-19.45 378.88-23.18 381.36-26.9 385.86-26.9L385.86-26.9Q390.21-26.9 392.53-23.63 394.86-20.35 394.86-13.95L394.86-13.95ZM390.61-14.9L390.61-15.25Q390.61-19.55 389.46-21.5 388.31-23.45 385.86-23.45L385.86-23.45Q383.66-23.45 382.41-21.48 381.16-19.5 380.96-14.9L380.96-14.9 390.61-14.9ZM406.91-26.9Q411.26-26.9 414.36-23.95L414.36-23.95 412.46-21.4Q411.06-22.45 409.76-22.98 408.46-23.5 407.01-23.5L407.01-23.5Q405.26-23.5 404.23-22.53 403.21-21.55 403.21-19.85L403.21-19.85Q403.21-18.2 404.21-17.25 405.21-16.3 408.01-15.3L408.01-15.3Q411.61-14 413.31-12.2 415.01-10.4 415.01-7.3L415.01-7.3Q415.01-3.55 412.48-1.48 409.96 0.6 406.21 0.6L406.21 0.6Q401.21 0.6 397.86-2.85L397.86-2.85 400.16-5.3Q402.96-2.85 406.11-2.85L406.11-2.85Q408.11-2.85 409.31-3.95 410.51-5.05 410.51-7.05L410.51-7.05Q410.51-8.4 410.06-9.25 409.61-10.1 408.51-10.8 407.41-11.5 405.31-12.25L405.31-12.25Q401.81-13.55 400.31-15.33 398.81-17.1 398.81-19.7L398.81-19.7Q398.81-21.7 399.83-23.35 400.86-25 402.71-25.95 404.56-26.9 406.91-26.9L406.91-26.9ZM420.15-26.35L424.55-26.35 424.55 0 420.15 0 420.15-26.35ZM422.3-38.85Q423.65-38.85 424.45-38 425.25-37.15 425.25-35.8L425.25-35.8Q425.25-34.55 424.43-33.7 423.6-32.85 422.3-32.85L422.3-32.85Q421-32.85 420.18-33.7 419.35-34.55 419.35-35.8L419.35-35.8Q419.35-37.1 420.18-37.98 421-38.85 422.3-38.85L422.3-38.85Z" opacity="1" transform="matrix(1,0,0,1,0,0)" fill="#ffffff" class="slogan-text-1" data-fill-palette-color="quaternary" id="text-1"></path></svg></g></svg></g></svg></g></svg></g></svg></g><defs></defs></svg><rect  fill="none" stroke="none" visibility="hidden"></rect></g></svg></g></svg>